<svg xmlns="http://www.w3.org/2000/svg">
	<symbol id="save" viewBox="0 0 18 14" fill="none">
		<path d="M1 7L7 13L17 1" stroke-width="2" stroke-linecap="round" stroke-linejoin="round"/>
	</symbol>

	<symbol id="done" viewBox="0 0 26 14" fill="none">
		<path d="M1 7L7.3 13L10.45 9.4M8.2 7L14.5 13L25 1M17.8 1L13.6 5.8" stroke-width="2" stroke-linecap="round" stroke-linejoin="round"/>
	</symbol>

	<symbol id="edit" viewBox="0 0 18 18" fill="none">
		<path d="M12.7404 3.26621L14.7338 5.2587M14.0223 1.5109L8.63209 6.90107C8.35359 7.17919 8.16364 7.53354 8.08621 7.91944L7.58832 10.4117L10.0806 9.91287C10.4665 9.83569 10.8204 9.64651 11.0989 9.36792L16.4891 3.97775C16.6511 3.81577 16.7796 3.62348 16.8672 3.41185C16.9549 3.20022 17 2.97339 17 2.74433C17 2.51526 16.9549 2.28843 16.8672 2.0768C16.7796 1.86517 16.6511 1.67288 16.4891 1.5109C16.3271 1.34893 16.1348 1.22044 15.9232 1.13278C15.7116 1.04512 15.4848 1 15.2557 1C15.0266 1 14.7998 1.04512 14.5882 1.13278C14.3765 1.22044 14.1842 1.34893 14.0223 1.5109V1.5109Z" stroke-width="2" stroke-linecap="round" stroke-linejoin="round"/>
    	<path d="M15.1178 12.2941V15.1176C15.1178 15.6169 14.9195 16.0957 14.5665 16.4487C14.2134 16.8017 13.7347 17 13.2354 17H2.88237C2.38314 17 1.90435 16.8017 1.55133 16.4487C1.19832 16.0957 1 15.6169 1 15.1176V4.76459C1 4.26535 1.19832 3.78656 1.55133 3.43355C1.90435 3.08054 2.38314 2.88222 2.88237 2.88222H5.70593" stroke-width="2" stroke-linecap="round" stroke-linejoin="round"/>
	</symbol>

	<symbol id="delete" viewBox="0 0 18 18" fill="none">
		<path d="M1 4.2H17M7.4 8.2V12.2M10.6 8.2V12.2M2.6 4.2H15.4L14.136 15.576C14.0927 15.9675 13.9065 16.3293 13.613 16.592C13.3196 16.8548 12.9395 17 12.5456 17H5.4544C5.06051 17 4.68045 16.8548 4.387 16.592C4.09355 16.3293 3.90733 15.9675 3.864 15.576L2.6 4.2ZM5.276 1.9176C5.4054 1.64317 5.61017 1.4112 5.8664 1.24873C6.12264 1.08626 6.4198 0.999996 6.7232 1H11.2768C11.5803 0.999845 11.8777 1.08604 12.1341 1.24851C12.3905 1.41099 12.5953 1.64305 12.7248 1.9176L13.8 4.2H4.2L5.276 1.9176Z" stroke-width="2" stroke-linecap="round" stroke-linejoin="round"/>
	</symbol>
</svg>
